<?xml version="1.0" encoding="utf-8"?>
<!-- Generator: Adobe Illustrator 24.0.1, SVG Export Plug-In . SVG Version: 6.00 Build 0)  -->
<svg version="1.1" id="Vrstva_1" xmlns="http://www.w3.org/2000/svg" xmlns:xlink="http://www.w3.org/1999/xlink" x="0px" y="0px"
	 viewBox="0 0 374.1 178.5" style="enable-background:new 0 0 374.1 178.5;" xml:space="preserve">
<style type="text/css">
	.st0{fill:#F4992E;stroke:#F4982E;stroke-width:0.75;stroke-miterlimit:10;}
	.st1{fill:#FFFFFF;}
	.st2{fill:#F4982E;}
</style>
<g>
	<path class="st0" d="M40.7,17.4l9.2,2.6c7,1.7,14.4,8.3,16.3,12.9c0.1,0.3,0.4,0.5,0.8,0.5c0.3,0,0.6-0.2,0.7-0.5
		c1.9-4.6,9.2-11.2,16.2-12.9l9-2.8c0.8-0.2,1.4-0.8,1.7-1.5C86.7,10.6,77.2,8,67.2,8c-9.6,0-20.2,3-28.1,7.9
		C39.4,16.6,40,17.2,40.7,17.4z M67.2,9.3c9.2,0,17.9,2.3,25.2,6.6l-8.9,2.7c-6.9,1.7-14,7.8-16.6,12.7c-2.6-4.9-9.7-11-16.7-12.7
		l-8.9-2.5C48.9,11.9,58.4,9.3,67.2,9.3z"/>
	<path class="st0" d="M89,45.3c-1.3-1.2-1.4-3.3-0.2-4.7c0.5-0.5,1.2-0.9,1.9-1l1.5-0.2l-0.9-1.1c-0.2-0.3-0.5-0.5-0.7-0.8
		c-3.3-3.1-8.6-3-11.8,0.4c-3.1,3.3-3,8.6,0.4,11.8c1.6,1.5,3.6,2.2,5.7,2.2c2.2,0,4.4-0.9,6.1-2.6c0.5-0.5,0.9-1.1,1.3-1.8l0.7-1.3
		l-1.5,0.1C90.5,46.2,89.7,45.9,89,45.3z M89.7,48.1c-2.5,2.7-6.7,2.8-9.4,0.3c-1.3-1.2-2-2.9-2.1-4.6C78.2,42,78.8,40.3,80,39
		c1.3-1.4,3.1-2.1,4.8-2.1c1.5,0,3,0.5,4.2,1.5c-0.5,0.3-1,0.6-1.5,1.1h0c-0.9,1-1.4,2.2-1.3,3.6c0,1.3,0.6,2.6,1.6,3.5
		c0.6,0.6,1.4,1,2.2,1.2C90,47.8,89.8,47.9,89.7,48.1z"/>
	<path class="st0" d="M55.3,40.3l1.5-0.1L56,39c-0.2-0.3-0.4-0.6-0.6-0.9c-1.4-1.7-3.5-2.7-5.7-2.9c-2.2-0.2-4.4,0.5-6,2
		c-1.7,1.5-2.7,3.5-2.9,5.7c-0.2,2.2,0.5,4.4,2,6c1.4,1.7,3.5,2.7,5.7,2.9c0.2,0,0.4,0,0.6,0c2,0,3.9-0.7,5.4-2c0.6-0.5,1-1,1.5-1.7
		l0.8-1.2l-1.5-0.1c-0.9-0.1-1.7-0.5-2.3-1.1c-1.2-1.4-1-3.5,0.3-4.7C53.8,40.6,54.5,40.3,55.3,40.3z M52.2,39.8
		c-2.1,1.8-2.3,5-0.5,7c0.6,0.6,1.3,1.1,2,1.4c-0.1,0.1-0.2,0.2-0.3,0.3c-1.3,1.2-3,1.7-4.8,1.6c-1.8-0.1-3.4-0.9-4.5-2.3
		c-2.4-2.8-2.1-7,0.7-9.4c1.2-1,2.7-1.6,4.3-1.6c0.2,0,0.3,0,0.5,0c1.6,0.1,3.1,0.8,4.2,2C53.2,39.1,52.6,39.4,52.2,39.8L52.2,39.8z
		"/>
	<path class="st0" d="M367.1,140.1H112V88.2l0,0c0,0,0,0,0,0V44.6c0-8.4-3.5-16.5-9.9-23c0.5-0.4,1-0.8,1.5-1.3l2.8-2.6
		c0.3-0.3,0.3-0.7,0-0.9c-0.3-0.3-0.7-0.3-0.9,0l-2.8,2.6c-3.1,2.9-6.9,5-11,6l-8.1,1.9c-7.2,1.7-14.3,7.9-16.7,12.9
		c-2.4-5-9.5-11.2-16.7-12.9l-8.1-1.9c-4.1-1-7.9-3.1-11-6l-2.8-2.6c-0.3-0.3-0.7-0.2-0.9,0c-0.3,0.3-0.2,0.7,0,0.9l2.8,2.6
		c0.6,0.6,1.3,1.1,1.9,1.6c-4.6,4.8-7.7,10.4-9,16.2c-5.9,17.8-4.9,40.4,2.5,60.3c3.3,8.8,7.6,16.9,12.6,24
		c-3.5,4.5-5.6,10.1-5.8,15.8l-0.1,1.9h-24v1.1h47.8c6.6,5,13.7,8.6,20.9,10.4c10.2,11.9,22.9,18.8,33.5,22.8c0.3,0.1,0.7,0.1,1-0.1
		c0.3-0.2,0.4-0.5,0.4-0.9v-32.2h255.1V140.1z M66.9,42.6c3.8,4.3,1.4,11.2,0.2,14C65.8,53.9,63.2,47,66.9,42.6z M33.8,139.9
		l0.1-1.7c0.2-5.3,2.1-10.5,5.3-14.7c4.6,6.3,9.8,11.9,15.4,16.4l0.2,0.1H44.5c-0.1-0.8-0.3-3.3,1.5-5.2l-1.1-0.7
		c-2,2.2-1.9,4.8-1.8,5.9h-4.7c-0.1-1.3,0-3.7,1.5-5.8l-1.1-0.8c-1.7,2.3-1.9,5.1-1.8,6.6h-3.4L33.8,139.9L33.8,139.9z M27,98
		c-6.3-17-7.9-35.9-4.5-52.1c1,18.5,22.1,34.6,46.5,35.2c-3.5,3.7-6.1,8.7-7.6,14.7c-2.5,10.2-1.5,22.2,2.8,33.7
		c3,8,6.9,14.7,11.5,20.3C55.6,144.1,36.7,124,27,98z M110.7,173c-10.4-3.9-22.7-10.7-32.7-22.4l0-0.1c0,0-0.1,0-0.1,0
		c-4.9-5.8-9.2-12.8-12.4-21.3c-4.2-11.3-5.2-22.9-2.7-32.9c2.4-9.9,7.9-16.9,15.4-19.7c9.6-3.6,22.3,1.2,32.5,12.2V173z
		 M110.7,86.8C105,81,98.6,77,92.3,75.2c9.2-5.2,15.7-13,18.4-21.8V86.8z M90.5,74.7L90.5,74.7c-4.5-1-8.8-0.8-12.7,0.6
		c-2.7,1-5.2,2.6-7.4,4.5c-24.8-0.1-46.6-16.5-46.6-35.3c0-2,0.2-4.1,0.7-6.1c0,0,0-0.1,0-0.1l0,0c1.3-5.6,4.3-11,8.8-15.6
		c2.6,1.8,5.5,3.1,8.6,3.9l8.1,1.9c7.1,1.7,14.5,8.4,16.1,13c-2.3,2.5-3,6.1-1.9,10.5c0.6,2.6,1.7,4.8,2.2,5.8
		c0.2,0.3,0.5,0.5,0.9,0.5c0.4,0,0.7-0.2,0.8-0.5c1.1-2.2,4.7-10.9-0.2-16.3c1.7-4.7,9-11.3,16.1-13l8.1-1.9
		c3.4-0.8,6.5-2.3,9.3-4.4l-0.2,0.2c6.2,6.2,9.6,14.1,9.6,22.1C110.7,56.6,102.9,68.1,90.5,74.7z"/>
</g>
<rect x="63.6" y="-245.5" style="fill:none;" width="401.4" height="158.3"/>
<text transform="matrix(1 0 0 1 63.5642 -230.4068)"><tspan x="0" y="0" style="font-family:'AvenirNext-Regular'; font-size:20px; letter-spacing:1;">Základní škola a mateřská škola </tspan><tspan x="0" y="24" style="font-family:'AvenirNext-Regular'; font-size:20px; letter-spacing:1;">Český Rudolec</tspan></text>
<g>
	<path class="st1" d="M128.2,83.1L139.3,66h-10.1v-2.3h13.4v1.6l-11.1,17.2h11.2v2.3h-14.5V83.1z"/>
	<path class="st1" d="M146,82l1.6-1.8c1.5,1.6,3.6,2.6,5.8,2.6c2.8,0,4.4-1.4,4.4-3.4c0-2.1-1.5-2.8-3.5-3.7l-3-1.3
		c-2-0.8-4.3-2.3-4.3-5.4c0-3.2,2.8-5.6,6.6-5.6c2.5,0,4.7,1.1,6.2,2.6l-1.4,1.7c-1.3-1.2-2.8-2-4.8-2c-2.4,0-3.9,1.2-3.9,3.1
		c0,2,1.8,2.8,3.5,3.5l3,1.3c2.4,1,4.3,2.5,4.3,5.6c0,3.3-2.7,6-7.2,6C150.4,85.1,147.9,83.9,146,82z M148.9,58.5l1.2-0.8l3.5,3h0.1
		l3.5-3l1.2,0.8l-3.3,3.6h-2.8L148.9,58.5z"/>
	<path class="st1" d="M178.6,63.7h3l7.1,21h-2.8L182.2,73c-0.8-2.3-1.4-4.7-2.1-7.1H180c-0.7,2.4-1.3,4.7-2.1,7.1l-3.7,11.7h-2.7
		L178.6,63.7z M175.2,76.2h9.7v2.1h-9.7V76.2z"/>
	<path class="st1" d="M201.2,63.7h3.2l4,11.2c0.5,1.4,1,2.9,1.5,4.4h0.1c0.5-1.5,0.9-2.9,1.5-4.4l4-11.2h3.2v21h-2.5V73.1
		c0-1.8,0.2-4.4,0.3-6.2h-0.1l-1.7,4.8l-4,10.9H209l-4-10.9l-1.7-4.8h-0.1c0.1,1.9,0.3,4.4,0.3,6.2v11.6h-2.4V63.7z"/>
	<path class="st1" d="M224.5,82l1.6-1.8c1.5,1.6,3.6,2.6,5.8,2.6c2.8,0,4.4-1.4,4.4-3.4c0-2.1-1.5-2.8-3.5-3.7l-3-1.3
		c-2-0.8-4.3-2.3-4.3-5.4c0-3.2,2.8-5.6,6.6-5.6c2.5,0,4.7,1.1,6.2,2.6l-1.4,1.7c-1.3-1.2-2.8-2-4.8-2c-2.4,0-3.9,1.2-3.9,3.1
		c0,2,1.8,2.8,3.5,3.5l3,1.3c2.4,1,4.3,2.5,4.3,5.6c0,3.3-2.7,6-7.2,6C228.9,85.1,226.3,83.9,224.5,82z M227.4,58.5l1.2-0.8l3.5,3
		h0.1l3.5-3l1.2,0.8l-3.3,3.6h-2.8L227.4,58.5z"/>
	<path class="st1" d="M128.4,112.6c0-6.8,4-10.9,9.3-10.9c2.6,0,4.6,1.2,5.8,2.6l-1.5,1.7c-1.1-1.2-2.5-2-4.3-2
		c-4,0-6.6,3.3-6.6,8.5c0,5.3,2.5,8.6,6.5,8.6c2,0,3.5-0.9,4.9-2.4l1.5,1.7c-1.7,1.9-3.7,3-6.4,3
		C132.4,123.5,128.4,119.5,128.4,112.6z M132.6,96.9l1.2-0.8l3.5,3h0.1l3.5-3l1.2,0.8l-3.3,3.6H136L132.6,96.9z"/>
	<path class="st1" d="M149.5,102.1h12.1v2.3h-9.4v6.6h8v2.3h-8v7.6h9.8v2.3h-12.4V102.1z"/>
	<path class="st1" d="M166.5,120.4l1.6-1.8c1.5,1.6,3.6,2.6,5.8,2.6c2.8,0,4.4-1.4,4.4-3.4c0-2.1-1.5-2.8-3.5-3.7l-3-1.3
		c-2-0.8-4.3-2.3-4.3-5.4c0-3.2,2.8-5.6,6.6-5.6c2.5,0,4.7,1.1,6.2,2.6l-1.4,1.7c-1.3-1.2-2.8-2-4.8-2c-2.4,0-3.9,1.2-3.9,3.1
		c0,2,1.8,2.8,3.5,3.5l3,1.3c2.4,1,4.3,2.5,4.3,5.6c0,3.3-2.7,6-7.2,6C170.9,123.5,168.3,122.3,166.5,120.4z"/>
	<path class="st1" d="M186.7,102.1h2.7v10.5h0.1l8.7-10.5h3l-6.6,8l7.6,13h-3l-6.3-10.9l-3.6,4.3v6.6h-2.7V102.1z"/>
	<path class="st1" d="M209.8,115l-6.3-12.9h2.9l2.7,5.9c0.7,1.5,1.3,3,2,4.6h0.1c0.7-1.6,1.5-3,2.1-4.6l2.7-5.9h2.8l-6.3,12.9v8.1
		h-2.7V115z M209.4,99.5l4.5-4.1l1.5,1.8l-4.9,3.7L209.4,99.5z"/>
	<path class="st1" d="M230.8,102.1h6.6c4.3,0,7.4,1.5,7.4,5.9c0,4.2-3.1,6.2-7.4,6.2h-3.9v8.9h-2.7V102.1z M237,112.1
		c3.3,0,5.1-1.3,5.1-4c0-2.8-1.8-3.7-5.1-3.7h-3.5v7.8H237z M236.9,113.5l2.1-1.4l6.4,11h-3L236.9,113.5z"/>
	<path class="st1" d="M250.6,114.5v-12.3h2.7v12.4c0,5,2.1,6.6,4.9,6.6c2.8,0,5-1.6,5-6.6v-12.4h2.6v12.3c0,6.7-3.3,9.1-7.5,9.1
		S250.6,121.2,250.6,114.5z"/>
	<path class="st1" d="M272.9,102.1h5.3c6.5,0,9.9,3.8,9.9,10.4c0,6.7-3.5,10.6-9.8,10.6h-5.4V102.1z M278,120.9
		c4.9,0,7.4-3.1,7.4-8.4c0-5.3-2.5-8.2-7.4-8.2h-2.4v16.6H278z"/>
	<path class="st1" d="M293,112.5c0-6.7,3.7-10.8,9-10.8c5.3,0,9,4.1,9,10.8c0,6.7-3.7,11-9,11C296.7,123.5,293,119.3,293,112.5z
		 M308.2,112.5c0-5.2-2.5-8.5-6.2-8.5c-3.8,0-6.2,3.2-6.2,8.5c0,5.2,2.5,8.6,6.2,8.6C305.7,121.2,308.2,117.8,308.2,112.5z"/>
	<path class="st1" d="M317.1,102.1h2.7v18.8h9.2v2.3h-11.8V102.1z"/>
	<path class="st1" d="M334.2,102.1h12.1v2.3h-9.4v6.6h8v2.3h-8v7.6h9.8v2.3h-12.4V102.1z"/>
	<path class="st1" d="M351.5,112.6c0-6.8,4-10.9,9.3-10.9c2.6,0,4.6,1.2,5.8,2.6l-1.5,1.7c-1.1-1.2-2.5-2-4.3-2
		c-4,0-6.6,3.3-6.6,8.5c0,5.3,2.5,8.6,6.5,8.6c2,0,3.5-0.9,4.9-2.4l1.5,1.7c-1.7,1.9-3.7,3-6.4,3
		C355.4,123.5,351.5,119.5,351.5,112.6z"/>
</g>
<g>
	<path class="st2" d="M-423.3-256.8l9.2,2.6c7,1.7,14.4,8.3,16.3,12.9c0.1,0.3,0.4,0.5,0.8,0.5c0.3,0,0.6-0.2,0.7-0.5
		c1.9-4.6,9.2-11.2,16.2-12.9l9-2.8c0.8-0.2,1.4-0.8,1.7-1.5c-7.9-5-17.4-7.6-27.4-7.6c-9.6,0-20.2,3-28.1,7.9
		C-424.6-257.6-424.1-257-423.3-256.8z M-396.8-264.9c9.2,0,17.9,2.3,25.2,6.6l-8.9,2.7c-6.9,1.7-14,7.8-16.6,12.7
		c-2.6-4.9-9.7-11-16.7-12.7l-8.9-2.5C-415.1-262.3-405.6-264.9-396.8-264.9z"/>
	<path class="st2" d="M-375-228.9c-1.3-1.2-1.4-3.3-0.2-4.7c0.5-0.5,1.2-0.9,1.9-1l1.5-0.2l-0.9-1.1c-0.2-0.3-0.5-0.5-0.7-0.8
		c-3.3-3.1-8.6-3-11.8,0.4c-3.1,3.3-3,8.6,0.4,11.8c1.6,1.5,3.6,2.2,5.7,2.2c2.2,0,4.4-0.9,6.1-2.6c0.5-0.5,0.9-1.1,1.3-1.8l0.7-1.3
		l-1.5,0.1C-373.5-228-374.4-228.3-375-228.9z M-374.3-226.1c-2.5,2.7-6.7,2.8-9.4,0.3c-1.3-1.2-2-2.9-2.1-4.6
		c-0.1-1.8,0.6-3.5,1.8-4.8c1.3-1.4,3.1-2.1,4.8-2.1c1.5,0,3,0.5,4.2,1.5c-0.5,0.3-1,0.6-1.5,1.1h0c-0.9,1-1.4,2.2-1.3,3.6
		c0,1.3,0.6,2.6,1.6,3.5c0.6,0.6,1.4,1,2.2,1.2C-374.1-226.4-374.2-226.3-374.3-226.1z"/>
	<path class="st2" d="M-408.7-233.9l1.5-0.1l-0.8-1.2c-0.2-0.3-0.4-0.6-0.6-0.9c-1.4-1.7-3.5-2.7-5.7-2.9c-2.2-0.2-4.4,0.5-6,2
		c-1.7,1.5-2.7,3.5-2.9,5.7c-0.2,2.2,0.5,4.4,2,6c1.4,1.7,3.5,2.7,5.7,2.9c0.2,0,0.4,0,0.6,0c2,0,3.9-0.7,5.4-2c0.6-0.5,1-1,1.5-1.7
		l0.8-1.2l-1.5-0.1c-0.9-0.1-1.7-0.5-2.3-1.1c-1.2-1.4-1-3.5,0.3-4.7C-410.2-233.6-409.5-233.9-408.7-233.9z M-411.9-234.4
		c-2.1,1.8-2.3,5-0.5,7c0.6,0.6,1.3,1.1,2,1.4c-0.1,0.1-0.2,0.2-0.3,0.3c-1.3,1.2-3,1.7-4.8,1.6c-1.8-0.1-3.4-0.9-4.5-2.3
		c-2.4-2.8-2.1-7,0.7-9.4c1.2-1,2.7-1.6,4.3-1.6c0.2,0,0.3,0,0.5,0c1.6,0.1,3.1,0.8,4.2,2C-410.9-235.1-411.4-234.8-411.9-234.4
		L-411.9-234.4z"/>
	<path class="st2" d="M22-134.1H-352v-51.8l0,0c0,0,0,0,0,0v-43.6c0-8.4-3.5-16.5-9.9-23c0.5-0.4,1-0.8,1.5-1.3l2.8-2.6
		c0.3-0.3,0.3-0.7,0-0.9c-0.3-0.3-0.7-0.3-0.9,0l-2.8,2.6c-3.1,2.9-6.9,5-11,6l-8.1,1.9c-7.2,1.7-14.3,7.9-16.7,12.9
		c-2.4-5-9.5-11.2-16.7-12.9l-8.1-1.9c-4.1-1-7.9-3.1-11-6l-2.8-2.6c-0.3-0.3-0.7-0.2-0.9,0c-0.3,0.3-0.2,0.7,0,0.9l2.8,2.6
		c0.6,0.6,1.3,1.1,1.9,1.6c-4.6,4.8-7.7,10.4-9,16.2c-5.9,17.8-4.9,40.4,2.5,60.3c3.3,8.8,7.6,16.9,12.6,24
		c-3.5,4.5-5.6,10.1-5.8,15.8l-0.1,1.9h-24v1.1h47.8c6.6,5,13.7,8.6,20.9,10.4c10.2,11.9,22.9,18.8,33.5,22.8c0.3,0.1,0.7,0.1,1-0.1
		c0.3-0.2,0.4-0.5,0.4-0.9V-133H22V-134.1z M-397.1-231.6c3.8,4.3,1.4,11.2,0.2,14C-398.2-220.3-400.9-227.2-397.1-231.6z
		 M-430.2-134.3l0.1-1.7c0.2-5.3,2.1-10.5,5.3-14.7c4.6,6.3,9.8,11.9,15.4,16.4l0.2,0.1h-10.2c-0.1-0.8-0.3-3.3,1.5-5.2l-1.1-0.7
		c-2,2.2-1.9,4.8-1.8,5.9h-4.7c-0.1-1.3,0-3.7,1.5-5.8l-1.1-0.8c-1.7,2.3-1.9,5.1-1.8,6.6h-3.4L-430.2-134.3L-430.2-134.3z
		 M-437.1-176.2c-6.3-17-7.9-35.9-4.5-52.1c1,18.5,22.1,34.6,46.5,35.2c-3.5,3.7-6.1,8.7-7.6,14.7c-2.5,10.2-1.5,22.2,2.8,33.7
		c3,8,6.9,14.7,11.5,20.3C-408.4-130.1-427.3-150.2-437.1-176.2z M-353.4-101.2c-10.4-3.9-22.7-10.7-32.7-22.4l0-0.1
		c0,0-0.1,0-0.1,0c-4.9-5.8-9.2-12.8-12.4-21.3c-4.2-11.3-5.2-22.9-2.7-32.9c2.4-9.9,7.9-16.9,15.4-19.7c9.6-3.6,22.3,1.2,32.5,12.2
		V-101.2z M-353.4-187.4c-5.7-5.8-12.1-9.8-18.4-11.7c9.2-5.2,15.7-13,18.4-21.8V-187.4z M-373.6-199.5L-373.6-199.5
		c-4.5-1-8.8-0.8-12.7,0.6c-2.7,1-5.2,2.6-7.4,4.5c-24.8-0.1-46.6-16.5-46.6-35.3c0-2,0.2-4.1,0.7-6.1c0,0,0-0.1,0-0.1l0,0
		c1.3-5.6,4.3-11,8.8-15.6c2.6,1.8,5.5,3.1,8.6,3.9l8.1,1.9c7.1,1.7,14.5,8.4,16.1,13c-2.3,2.5-3,6.1-1.9,10.5
		c0.6,2.6,1.7,4.8,2.2,5.8c0.2,0.3,0.5,0.5,0.9,0.5c0.4,0,0.7-0.2,0.8-0.5c1.1-2.2,4.7-10.9-0.2-16.3c1.7-4.7,9-11.3,16.1-13
		l8.1-1.9c3.4-0.8,6.5-2.3,9.3-4.4l-0.2,0.2c6.2,6.2,9.6,14.1,9.6,22.1C-353.4-217.6-361.1-206.1-373.6-199.5z"/>
</g>
<g>
	<path d="M-338.5-155.5v-3.9l9-11.1h-8.7v-3.8h14.4v3.6l-9.2,11.2h9.4v3.9H-338.5z"/>
	<path d="M-309.4-169.5c-0.4-0.5-0.9-0.9-1.5-1.2c-0.6-0.3-1.2-0.4-1.8-0.4c-0.3,0-0.6,0-0.9,0.1c-0.3,0.1-0.6,0.2-0.8,0.3
		c-0.2,0.2-0.5,0.3-0.6,0.6c-0.2,0.2-0.3,0.5-0.3,0.9c0,0.3,0.1,0.6,0.2,0.8c0.1,0.2,0.3,0.4,0.6,0.6c0.3,0.2,0.6,0.3,0.9,0.4
		c0.4,0.1,0.8,0.3,1.2,0.4c0.6,0.2,1.3,0.4,2,0.7c0.7,0.3,1.3,0.6,1.9,1c0.6,0.4,1,1,1.4,1.6c0.4,0.6,0.6,1.4,0.6,2.4
		c0,1.1-0.2,2-0.6,2.8c-0.4,0.8-0.9,1.4-1.6,2c-0.7,0.5-1.4,0.9-2.3,1.1c-0.9,0.2-1.8,0.4-2.7,0.4c-1.3,0-2.7-0.2-3.9-0.7
		c-1.3-0.5-2.3-1.1-3.1-2l3-3c0.5,0.6,1.1,1,1.8,1.4c0.8,0.4,1.5,0.6,2.2,0.6c0.3,0,0.7,0,1-0.1c0.3-0.1,0.6-0.2,0.8-0.3
		c0.2-0.2,0.4-0.4,0.6-0.6c0.1-0.3,0.2-0.6,0.2-1c0-0.4-0.1-0.7-0.3-0.9c-0.2-0.2-0.4-0.5-0.8-0.7c-0.3-0.2-0.7-0.4-1.2-0.6
		c-0.5-0.2-1-0.3-1.7-0.5c-0.6-0.2-1.2-0.4-1.8-0.7c-0.6-0.3-1.1-0.6-1.5-1c-0.5-0.4-0.8-0.9-1.1-1.5c-0.3-0.6-0.4-1.3-0.4-2.2
		c0-1,0.2-1.9,0.6-2.7c0.4-0.7,1-1.4,1.7-1.8c0.7-0.5,1.5-0.8,2.3-1.1c0.9-0.2,1.7-0.3,2.6-0.3c1.1,0,2.1,0.2,3.3,0.6
		c1.1,0.4,2.1,1,2.9,1.7L-309.4-169.5z M-310.8-176.8h-3.9l-3.3-3.8h3.5l1.8,2.2l1.8-2.2h3.4L-310.8-176.8z"/>
	<path d="M-282.1-155.5l-1.5-3.7h-7.3l-1.4,3.7h-4.9l7.9-18.8h4.4l7.8,18.8H-282.1z M-287.1-169.3l-2.4,6.5h4.7L-287.1-169.3z"/>
	<path d="M-249.6-155.5l0.1-13.3h-0.1l-4.9,13.3h-3.2l-4.8-13.3h-0.1l0.1,13.3h-4.3v-18.8h6.5l4.3,12.1h0.1l4.1-12.1h6.6v18.8
		H-249.6z"/>
	<path d="M-230-169.5c-0.4-0.5-0.9-0.9-1.5-1.2c-0.6-0.3-1.2-0.4-1.8-0.4c-0.3,0-0.6,0-0.9,0.1c-0.3,0.1-0.6,0.2-0.8,0.3
		c-0.2,0.2-0.5,0.3-0.6,0.6c-0.2,0.2-0.3,0.5-0.3,0.9c0,0.3,0.1,0.6,0.2,0.8c0.1,0.2,0.3,0.4,0.6,0.6c0.3,0.2,0.6,0.3,0.9,0.4
		c0.4,0.1,0.8,0.3,1.2,0.4c0.6,0.2,1.3,0.4,2,0.7c0.7,0.3,1.3,0.6,1.9,1c0.6,0.4,1,1,1.4,1.6c0.4,0.6,0.6,1.4,0.6,2.4
		c0,1.1-0.2,2-0.6,2.8c-0.4,0.8-0.9,1.4-1.6,2c-0.7,0.5-1.4,0.9-2.3,1.1c-0.9,0.2-1.8,0.4-2.7,0.4c-1.3,0-2.7-0.2-3.9-0.7
		c-1.3-0.5-2.3-1.1-3.1-2l3-3c0.5,0.6,1.1,1,1.8,1.4s1.5,0.6,2.2,0.6c0.3,0,0.7,0,1-0.1c0.3-0.1,0.6-0.2,0.8-0.3
		c0.2-0.2,0.4-0.4,0.6-0.6c0.1-0.3,0.2-0.6,0.2-1c0-0.4-0.1-0.7-0.3-0.9c-0.2-0.2-0.4-0.5-0.8-0.7c-0.3-0.2-0.7-0.4-1.2-0.6
		c-0.5-0.2-1-0.3-1.7-0.5c-0.6-0.2-1.2-0.4-1.8-0.7c-0.6-0.3-1.1-0.6-1.5-1c-0.5-0.4-0.8-0.9-1.1-1.5c-0.3-0.6-0.4-1.3-0.4-2.2
		c0-1,0.2-1.9,0.6-2.7c0.4-0.7,1-1.4,1.7-1.8c0.7-0.5,1.5-0.8,2.3-1.1c0.9-0.2,1.7-0.3,2.6-0.3c1.1,0,2.1,0.2,3.3,0.6
		c1.1,0.4,2.1,1,2.9,1.7L-230-169.5z M-231.3-176.8h-3.9l-3.3-3.8h3.5l1.8,2.2l1.8-2.2h3.4L-231.3-176.8z"/>
	<path d="M-198.3-158.1c-0.8,1-1.9,1.7-3.1,2.3c-1.2,0.6-2.6,0.8-4.2,0.8c-1.5,0-2.8-0.2-4-0.7c-1.2-0.5-2.3-1.2-3.2-2
		c-0.9-0.9-1.6-1.9-2.1-3.2c-0.5-1.2-0.8-2.6-0.8-4c0-1.5,0.3-2.9,0.8-4.1c0.5-1.2,1.2-2.3,2.2-3.1c0.9-0.9,2-1.5,3.2-2
		c1.2-0.5,2.6-0.7,4-0.7c1.3,0,2.6,0.2,3.9,0.7c1.3,0.5,2.3,1.2,3.1,2.1l-3.1,3.1c-0.4-0.6-1-1-1.7-1.3c-0.7-0.3-1.4-0.4-2.1-0.4
		c-0.8,0-1.5,0.1-2.2,0.4c-0.7,0.3-1.2,0.7-1.7,1.2c-0.5,0.5-0.9,1.1-1.1,1.8c-0.3,0.7-0.4,1.5-0.4,2.3c0,0.9,0.1,1.6,0.4,2.3
		c0.3,0.7,0.6,1.3,1.1,1.8c0.5,0.5,1,0.9,1.7,1.2c0.7,0.3,1.4,0.4,2.2,0.4c0.9,0,1.7-0.2,2.4-0.5c0.7-0.4,1.2-0.8,1.6-1.4
		L-198.3-158.1z M-203.5-176.8h-3.9l-3.3-3.8h3.5l1.8,2.2l1.8-2.2h3.4L-203.5-176.8z"/>
	<path d="M-195.1-155.5v-18.8h12.7v3.8h-8.3v3.6h7.8v3.6h-7.8v3.9h8.7v3.9H-195.1z"/>
	<path d="M-167.7-169.5c-0.4-0.5-0.9-0.9-1.5-1.2c-0.6-0.3-1.2-0.4-1.8-0.4c-0.3,0-0.6,0-0.9,0.1c-0.3,0.1-0.6,0.2-0.8,0.3
		c-0.2,0.2-0.5,0.3-0.6,0.6c-0.2,0.2-0.3,0.5-0.3,0.9c0,0.3,0.1,0.6,0.2,0.8c0.1,0.2,0.3,0.4,0.6,0.6c0.3,0.2,0.6,0.3,0.9,0.4
		c0.4,0.1,0.8,0.3,1.2,0.4c0.6,0.2,1.3,0.4,2,0.7c0.7,0.3,1.3,0.6,1.9,1c0.6,0.4,1,1,1.4,1.6c0.4,0.6,0.6,1.4,0.6,2.4
		c0,1.1-0.2,2-0.6,2.8c-0.4,0.8-0.9,1.4-1.6,2c-0.7,0.5-1.4,0.9-2.3,1.1c-0.9,0.2-1.8,0.4-2.7,0.4c-1.3,0-2.6-0.2-3.9-0.7
		c-1.3-0.5-2.3-1.1-3.1-2l3-3c0.5,0.6,1.1,1,1.8,1.4c0.8,0.4,1.5,0.6,2.2,0.6c0.3,0,0.7,0,1-0.1c0.3-0.1,0.6-0.2,0.8-0.3
		c0.2-0.2,0.4-0.4,0.6-0.6c0.1-0.3,0.2-0.6,0.2-1c0-0.4-0.1-0.7-0.3-0.9c-0.2-0.2-0.4-0.5-0.8-0.7c-0.3-0.2-0.7-0.4-1.2-0.6
		c-0.5-0.2-1-0.3-1.7-0.5c-0.6-0.2-1.2-0.4-1.8-0.7c-0.6-0.3-1.1-0.6-1.5-1c-0.5-0.4-0.8-0.9-1.1-1.5c-0.3-0.6-0.4-1.3-0.4-2.2
		c0-1,0.2-1.9,0.6-2.7c0.4-0.7,1-1.4,1.7-1.8c0.7-0.5,1.5-0.8,2.3-1.1c0.9-0.2,1.7-0.3,2.6-0.3c1.1,0,2.1,0.2,3.3,0.6
		c1.1,0.4,2.1,1,2.9,1.7L-167.7-169.5z"/>
	<path d="M-149.1-155.5l-7-8.7h-0.1v8.7h-4.4v-18.8h4.4v7.7h0.1l6.7-7.7h5.7l-8.1,8.7l8.6,10.2H-149.1z"/>
	<path d="M-131.4-163.5v8h-4.5v-8l-7.1-10.8h5.5l4,7l4-7h5.3L-131.4-163.5z M-131.9-176.8h-3.3l2.8-3.8h4.4L-131.9-176.8z"/>
	<path d="M-104-155.5l-4.1-7.5h-1.5v7.5h-4.4v-18.8h7.2c0.9,0,1.8,0.1,2.6,0.3c0.9,0.2,1.6,0.5,2.3,0.9c0.7,0.4,1.2,1,1.6,1.8
		c0.4,0.7,0.6,1.6,0.6,2.7c0,1.3-0.3,2.3-1,3.2c-0.7,0.9-1.6,1.5-2.9,1.9l4.9,8.1H-104z M-104.2-168.6c0-0.4-0.1-0.8-0.3-1.1
		c-0.2-0.3-0.4-0.5-0.7-0.6c-0.3-0.2-0.6-0.3-1-0.3c-0.4-0.1-0.7-0.1-1.1-0.1h-2.4v4.4h2.2c0.4,0,0.8,0,1.1-0.1
		c0.4-0.1,0.7-0.2,1.1-0.3c0.3-0.2,0.6-0.4,0.8-0.7C-104.3-167.7-104.2-168.1-104.2-168.6z"/>
	<path d="M-79.7-159.5c-0.4,0.9-0.9,1.7-1.6,2.4c-0.7,0.7-1.6,1.2-2.6,1.6c-1,0.4-2.1,0.6-3.3,0.6c-1.2,0-2.4-0.2-3.4-0.6
		c-1-0.4-1.8-0.9-2.5-1.6c-0.7-0.7-1.2-1.5-1.6-2.4c-0.4-0.9-0.6-2-0.6-3.1v-11.7h4.5v11.3c0,0.5,0.1,1,0.2,1.5
		c0.1,0.5,0.3,0.9,0.6,1.2c0.3,0.4,0.6,0.7,1.1,0.9c0.5,0.2,1,0.3,1.6,0.3c0.6,0,1.2-0.1,1.6-0.3c0.5-0.2,0.8-0.5,1.1-0.9
		c0.3-0.4,0.5-0.8,0.6-1.2c0.1-0.5,0.2-0.9,0.2-1.5v-11.3h4.5v11.7C-79.1-161.5-79.3-160.5-79.7-159.5z"/>
	<path d="M-56.6-165c0,1.6-0.3,3.1-0.9,4.3s-1.4,2.2-2.4,3c-1,0.8-2.1,1.3-3.4,1.7c-1.3,0.4-2.5,0.5-3.8,0.5h-7v-18.8h6.8
		c1.3,0,2.6,0.2,3.9,0.5c1.3,0.3,2.4,0.8,3.5,1.5c1,0.7,1.8,1.7,2.4,2.9C-56.9-168.3-56.6-166.8-56.6-165z M-61.3-165
		c0-1.1-0.2-1.9-0.5-2.6c-0.3-0.7-0.8-1.3-1.4-1.7c-0.6-0.4-1.2-0.7-2-0.9c-0.7-0.2-1.5-0.3-2.3-0.3h-2.3v11h2.2
		c0.8,0,1.6-0.1,2.4-0.3c0.8-0.2,1.4-0.5,2-0.9c0.6-0.4,1-1,1.4-1.7C-61.5-163.1-61.3-163.9-61.3-165z"/>
	<path d="M-32.6-165c0,1.5-0.3,2.8-0.8,4.1c-0.5,1.2-1.2,2.3-2.1,3.2c-0.9,0.9-2,1.6-3.3,2c-1.3,0.5-2.6,0.7-4.1,0.7
		s-2.8-0.2-4.1-0.7c-1.2-0.5-2.3-1.2-3.2-2c-0.9-0.9-1.6-1.9-2.1-3.2c-0.5-1.2-0.8-2.6-0.8-4.1c0-1.5,0.3-2.9,0.8-4.1
		c0.5-1.2,1.2-2.2,2.1-3.1c0.9-0.9,2-1.5,3.2-2c1.2-0.5,2.6-0.7,4.1-0.7s2.8,0.2,4.1,0.7c1.3,0.5,2.3,1.1,3.3,2
		c0.9,0.9,1.6,1.9,2.1,3.1C-32.9-167.9-32.6-166.5-32.6-165z M-37.5-165c0-0.8-0.1-1.6-0.4-2.3c-0.3-0.7-0.6-1.3-1.1-1.8
		c-0.5-0.5-1-0.9-1.7-1.2c-0.7-0.3-1.4-0.4-2.2-0.4s-1.5,0.1-2.2,0.4c-0.7,0.3-1.2,0.7-1.7,1.2s-0.8,1.1-1.1,1.8
		c-0.3,0.7-0.4,1.5-0.4,2.3c0,0.9,0.1,1.6,0.4,2.4c0.3,0.7,0.6,1.3,1.1,1.8c0.5,0.5,1,0.9,1.7,1.2c0.7,0.3,1.4,0.4,2.2,0.4
		s1.5-0.1,2.2-0.4c0.7-0.3,1.2-0.7,1.7-1.2c0.5-0.5,0.9-1.1,1.1-1.8C-37.6-163.4-37.5-164.2-37.5-165z"/>
	<path d="M-28.3-155.5v-18.8h4.6v14.9h7.3v4H-28.3z"/>
	<path d="M-13-155.5v-18.8h12.7v3.8h-8.3v3.6h7.8v3.6h-7.8v3.9h8.7v3.9H-13z"/>
	<path d="M18-155.9c-1.2,0.6-2.6,0.8-4.2,0.8c-1.5,0-2.8-0.2-4-0.7c-1.2-0.5-2.3-1.2-3.2-2c-0.9-0.9-1.6-1.9-2.1-3.2s-0.8-2.6-0.8-4
		c0-1.5,0.3-2.9,0.8-4.1c0.5-1.2,1.2-2.3,2.2-3.1c0.9-0.9,2-1.5,3.2-2s2.6-0.7,4-0.7c1.3,0,2.6,0.2,3.9,0.7c1.3,0.5,2.3,1.2,3.1,2.1
		l-3.1,3.1c-0.4-0.6-1-1-1.7-1.3c-0.7-0.3-1.4-0.4-2.1-0.4c-0.8,0-1.5,0.1-2.2,0.4s-1.2,0.7-1.7,1.2c-0.5,0.5-0.9,1.1-1.1,1.8
		c-0.3,0.7-0.4,1.5-0.4,2.3c0,0.9,0.1,1.6,0.4,2.3c0.3,0.7,0.6,1.3,1.1,1.8c0.5,0.5,1,0.9,1.7,1.2c0.7,0.3,1.4,0.4,2.2,0.4
		c0.9,0,1.7-0.2,2.4-0.5c0.7-0.4,1.2-0.8,1.6-1.4l3.2,3C20.2-157.2,19.2-156.4,18-155.9z"/>
</g>
</svg>
